# xmcd
#
# Track frame offsets:
#       182
#       15930
#       29660
#       44435
#       57697
#       70260
#       84597
#       95647
#       107760
#       120510
#       132947
#       147485
#       158397
#       170397
#       183285
#       196397
#       209772
#       224110
#       238610
#       250160
#       263190
#       275345
#       285920
#       298852
#       310310
#
# Disc length: 4312 seconds
#
# Revision: 2
# Processed by: cddbd v1.5.2PL0 Copyright (c) Steve Scherf et al.
# Submitted via: FreeDbEdit v0.1
#
DISCID=8110d619
DTITLE=Nat King Cole - The Very Best Of
DYEAR=1900
DGENRE=
TTITLE0=Unforgettable
TTITLE1=(Get Your Kicks On) Route 66
TTITLE2=Mona Lisa
TTITLE3=The Girl From Ipanema
TTITLE4=Quizas, Quizas, Quizas
TTITLE5=Sweet Lorraine
TTITLE6=Straighten Up and Fly Right
TTITLE7=Walkin' My Baby Back Home
TTITLE8=Ramblin' Rose
TTITLE9=Pretend
TTITLE10=Too Young
TTITLE11=Those Lazy Hazy Crazy Days of Summer
TTITLE12=Nature Boy
TTITLE13=Darling Je Vous Aime Beaucoup
TTITLE14=For Sentimental Reasons
TTITLE15=Tenderly
TTITLE16=When I Fall in Love
TTITLE17=The Christmas Song (Merry Christmas to You)
TTITLE18=L.o.v.e.
TTITLE19=Ballerina
TTITLE20=Autumn Leaves (Les Feuilles Mortes)
TTITLE21=Perfidia
TTITLE22=Cachito
TTITLE23=Vaya Con Dios
TTITLE24=I Wish You Love
EXTD=
EXTT0=
EXTT1=
EXTT2=
EXTT3=
EXTT4=
EXTT5=
EXTT6=
EXTT7=
EXTT8=
EXTT9=
EXTT10=
EXTT11=
EXTT12=
EXTT13=
EXTT14=
EXTT15=
EXTT16=
EXTT17=
EXTT18=
EXTT19=
EXTT20=
EXTT21=
EXTT22=
EXTT23=
EXTT24=
PLAYORDER=
